PathFileType	4	(X/Y/Z)	C:/Users/beibeiliu/ov580/test_trc/User2\sequence.20_training_dense_right.trc
DataRate	CameraRate	NumFrames	NumMarkers	Units	OrigDataRate	OrigDataStartFrame	OrigNumFrames
120	120	12	19	mm	120	160	318
Frame#	Time	ThumbCMC			ThumbMCP			ThumbIP			ThumbTip			IndexMCP			IndexPIP			IndexTip			MiddleMCP			MiddlePIP			MiddleTip			RingMCP			RingPIP			RingTip			PinkyMCP			PinkyPIP			PinkyTip			BackHand1			BackHand2			BackHand3	
		X0	Y0	Z0	X1	Y1	Z1	X2	Y2	Z2	X3	Y3	Z3	X4	Y4	Z4	X5	Y5	Z5	X6	Y6	Z6	X7	Y7	Z7	X8	Y8	Z8	X9	Y9	Z9	X10	Y10	Z10	X11	Y11	Z11	X12	Y12	Z12	X13	Y13	Z13	X14	Y14	Z14	X15	Y15	Z15	X16	Y16	Z16	X17	Y17	Z17	X18	Y18	Z18	
159	1.325	83.3011	14.1091	46.3001	55.98	14.7507	24.8807	30.3354	-4.82888	12.2135	22.5593	-37.0462	14.6161	51.3358	-30.4955	-22.2033	35.5113	-39.5574	-37.5757	15.0846	-51.5426	-58.0765	54.5098	-52.5465	-19.9087	31.3095	-65.9529	-44.8666	15.5412	-75.3511	-62.4909	56.805	-67.9234	-7.40525	40.7204	-77.7572	-30.1125	23.4985	-85.2665	-50.3181	59.3298	-78.6413	17.609	43.274	-87.5503	-5.68915	30.2897	-89.3912	-26.4005	94.1508	-58.2106	35.5699	113.628	-50.3307	55.3423	101.886	-22.6961	28.8943	
160	1.33333	82.8758	8.89519	44.3699	56.7	21.5721	22.6205	27.2504	2.05524	8.71007	16.6209	-29.679	13.6621	47.6429	-27.2333	-20.7724	29.2527	-36.3612	-36.316	7.59066	-48.7743	-56.9279	44.3674	-49.3215	-21.9195	22.8062	-57.2289	-42.7002	5.28831	-68.6819	-59.3483	46.0971	-67.0736	-9.16722	29.7871	-72.259	-27.2347	10.0502	-79.567	-48.9743	48.8687	-79.0428	17.316	33.5893	-80.883	-0.892026	19.8994	-87.4933	-20.4592	88.852	-57.0651	35.8086	108.523	-53.4611	54.6984	99.9746	-20.0458	30.3444	
161	1.34167	86.6627	11.1065	45.9595	59.8285	21.5803	21.2185	28.3163	2.59807	7.50906	15.0933	-19.295	13.4788	45.7224	-25.6104	-19.5812	24.6642	-34.3115	-35.6817	1.58857	-42.5299	-55.3712	39.5777	-46.2187	-21.407	18.5458	-56.1345	-36.643	-1.65692	-59.7512	-60.0148	38.3726	-65.0333	-5.45182	20.1871	-69.8288	-24.8982	3.11819	-73.2515	-43.3902	39.8104	-75.1411	18.0174	23.2541	-81.2516	1.00234	9.97045	-85.0841	-19.2088	81.3831	-56.7346	32.4556	107.48	-53.2585	57.102	99.8462	-22.8749	30.2284	
162	1.35	87.7338	8.5241	43.3818	63.9386	23.0441	19.4698	32.7856	7.90436	8.14337	15.2757	-14.1241	13.6776	43.7835	-24.1541	-17.4467	22.5211	-30.6654	-35.0895	2.42568	-32.5465	-53.1257	35.4383	-45.6298	-20.2388	14.6563	-48.6666	-39.2808	-9.61989	-54.4195	-62.5397	32.03	-60.1983	-6.32282	14.9627	-63.4673	-23.6645	-7.51981	-66.0553	-45.4776	34.2606	-75.5531	21.285	16.249	-74.9261	0.582963	1.23146	-77.5469	-20.1235	74.361	-61.5335	33.4693	101.432	-58.8869	55.9122	94.147	-24.0851	27.87	
163	1.35833	91.7029	8.91604	44.3717	67.5949	19.8625	18.0499	34.504	7.40009	7.80706	15.1616	-11.0193	12.3762	39.7647	-20.6063	-23.3935	20.2422	-25.6711	-37.2637	-4.13346	-31.4467	-55.5805	34.6764	-41.6328	-20.1728	9.91897	-47.7656	-37.9891	-11.2155	-47.2229	-58.809	26.9943	-60.1553	-5.42966	7.32139	-63.1549	-22.2348	-11.6499	-63.1949	-40.894	27.2833	-70.3332	19.4456	10.0276	-69.0567	1.19134	-3.65331	-72.558	-20.909	73.1329	-60.001	33.349	96.6219	-61.0171	53.5798	94.9925	-27.7305	31.677	
164	1.36667	92.6975	2.59387	42.9962	73.3204	19.021	16.6088	37.8986	8.71231	3.78767	19.0646	-5.63771	11.3706	40.8513	-24.0979	-20.8367	18.4379	-22.0652	-41.2679	-2.11656	-24.2257	-54.7403	29.9682	-40.3027	-21.1984	6.91161	-40.8691	-39.509	-17.0672	-44.2806	-60.7677	22.1543	-56.9585	-5.35134	2.21611	-57.6747	-21.4645	-17.7382	-56.8233	-43.1897	22.2821	-67.908	20.8544	2.69835	-68.5003	5.041	-10.7475	-67.8389	-19.3888	68.274	-64.1545	34.4289	93.8074	-64.7129	58.5615	93.903	-32.3403	31.6361	
165	1.375	97.1274	-2.76253	42.2803	78.8909	15.2739	13.4997	41.1274	9.29744	-0.807045	21.2272	-6.60644	11.3115	42.7092	-21.9568	-22.1446	18.8491	-21.5259	-42.2988	-1.45448	-19.7694	-56.4394	27.1883	-43.5155	-16.3417	1.53358	-39.8262	-39.0818	-20.0357	-40.5787	-59.1931	16.7435	-55.9695	-2.43708	1.02001	-50.5822	-19.7659	-21.8419	-51.8491	-41.1319	15.7784	-59.7463	18.7761	-0.423838	-58.2862	5.42045	-16.4599	-62.0196	-16.0374	65.634	-63.3462	37.558	85.0091	-67.6428	58.8729	91.3686	-37.935	30.5234	
166	1.38333	97.6524	-8.22456	36.1101	84.0273	8.46145	10.174	51.3187	11.7194	-2.39356	27.3743	-1.21838	8.2315	40.9193	-26.5255	-22.0114	19.1189	-21.9683	-42.2281	-0.292256	-17.3429	-58.9927	26.1797	-39.7966	-21.0693	4.24701	-34.132	-41.1642	-19.6756	-31.2777	-63.4607	15.108	-51.5654	-1.84257	-6.02089	-48.6166	-19.7703	-22.7403	-44.6931	-40.7425	14.3454	-54.8472	24.327	-6.30665	-52.8249	6.94504	-16.9758	-49.9097	-13.7876	57.3789	-61.6463	36.7371	78.4532	-67.909	59.8952	90.3648	-44.1129	29.4474	
167	1.39167	103.711	-10.6084	35.6597	90.5977	5.29565	8.40429	52.2483	7.95569	-6.75071	30.3799	1.41379	6.80561	45.2039	-25.3208	-26.761	26.136	-20.9941	-43.026	-0.348427	-16.7082	-61.2619	28.1111	-38.6623	-21.1365	6.08025	-32.9817	-39.189	-18.8038	-30.2573	-63.072	13.6045	-48.5867	-1.25208	-4.95561	-43.214	-22.5894	-23.569	-39.823	-40.9258	9.18573	-51.9678	24.3795	-5.36782	-45.4176	5.9201	-19.9405	-45.5595	-14.1818	52.8924	-61.6026	39.0249	75.5796	-70.1704	63.3862	87.6235	-49.2197	30.4576	
168	1.4	107.998	-13.3675	35.7766	93.5618	1.18466	7.71125	62.0582	7.92992	-5.59178	36.1156	2.17556	3.92264	48.9222	-27.0542	-25.0694	24.7463	-22.6858	-45.4179	5.41376	-16.7851	-62.5497	29.8584	-39.0401	-20.1141	9.19371	-32.1859	-40.5741	-14.3169	-28.7759	-61.9272	12.074	-47.1314	-1.56339	-6.8058	-41.9269	-24.0916	-21.2944	-35.3348	-46.5281	5.50934	-48.3867	20.8109	-5.84967	-40.5131	1.51243	-18.5497	-43.4476	-16.1493	52.2045	-62.4575	40.8877	72.7748	-68.6744	60.7989	87.4393	-50.6803	33.9557	
169	1.40833	109.131	-17.7259	34.987	99.5591	-1.23025	3.33245	67.8843	7.04283	-9.92971	35.7796	3.71391	-2.04521	45.2019	-29.9409	-28.1474	31.2221	-23.6366	-46.241	11.939	-17.437	-65.0449	31.4276	-39.342	-21.9963	10.3858	-31.8694	-46.4458	-10.732	-28.8351	-67.382	15.5443	-44.1109	-3.63669	-3.0398	-39.1655	-26.1543	-18.5802	-33.3041	-49.3817	7.20544	-45.2467	19.0372	-4.69817	-39.6151	3.60406	-16.3372	-38.4342	-22.5186	49.9703	-62.4196	39.2391	75.6344	-66.3256	64.3559	88.219	-51.0245	33.5823	
170	1.41667	108.209	-19.7741	31.8997	103.598	-2.57017	1.15283	68.3382	5.19167	-15.1686	44.4959	2.91717	-2.12718	52.1506	-31.6308	-27.2968	34.6073	-26.5667	-46.5681	11.0589	-20.004	-70.0665	30.9626	-41.1627	-22.3525	12.7224	-32.991	-49.1952	-9.45114	-30.5698	-70.229	19.8337	-43.7143	-6.57367	2.70191	-39.8124	-24.2187	-16.2713	-35.5712	-49.6889	12.1073	-44.2014	18.4742	-2.5606	-38.1407	-3.53638	-16.9964	-38.7808	-24.2834	50.7287	-59.8105	38.713	74.7152	-67.5231	62.5951	89.0621	-52.408	34.2461	
